<svg xmlns="http://www.w3.org/2000/svg" xmlns:xlink="http://www.w3.org/1999/xlink" viewBox="0 0 290.29 329.06"><defs><style>.cls-1{fill:none;}.cls-2{isolation:isolate;}.cls-3{clip-path:url(#clip-path);}.cls-4{clip-path:url(#clip-path-2);}.cls-5{fill:#fff;}.cls-6{clip-path:url(#clip-path-3);}.cls-7{clip-path:url(#clip-path-4);}.cls-8{clip-path:url(#clip-path-5);}.cls-9{clip-path:url(#clip-path-6);}</style><clipPath id="clip-path" transform="translate(-497.86 -271.49)"><polygon class="cls-1" points="501.58 351 642.54 269.08 784.42 351 643.47 432.92 501.58 351"/></clipPath><clipPath id="clip-path-2" transform="translate(-497.86 -271.49)"><polygon class="cls-1" points="578.28 390.61 609.94 372.21 675.6 410.12 643.94 428.52 578.28 390.61"/></clipPath><clipPath id="clip-path-3" transform="translate(-497.86 -271.49)"><polygon class="cls-1" points="497.83 521.77 498.29 358.74 640.17 440.65 639.71 603.68 497.83 521.77"/></clipPath><clipPath id="clip-path-4" transform="translate(-497.86 -271.49)"><polygon class="cls-1" points="566.07 441.45 566.17 406.11 640.79 449.2 640.69 484.54 566.07 441.45"/></clipPath><clipPath id="clip-path-5" transform="translate(-497.86 -271.49)"><polygon class="cls-1" points="646.29 603.68 645.83 440.65 787.71 358.74 788.17 521.77 646.29 603.68"/></clipPath><clipPath id="clip-path-6" transform="translate(-497.86 -271.49)"><polygon class="cls-1" points="645.58 484.6 645.48 450.13 711.98 411.74 712.07 446.21 645.58 484.6"/></clipPath></defs><title>logo</title><g id="Top"><g class="cls-2"><g class="cls-3"><path d="M777.32,346.9,649.63,273.18a15.65,15.65,0,0,0-14.14,0L508.63,346.91c-3.88,2.25-3.86,5.93,0,8.19l127.69,73.72a15.61,15.61,0,0,0,14.15,0L777.38,355.1c3.87-2.25,3.85-5.94-.06-8.2" transform="translate(-497.86 -271.49)"/></g></g><g class="cls-2"><g class="cls-4"><path class="cls-5" d="M591.39,394.61c-2.83-1.63-3.24-4-1.31-6a7.72,7.72,0,0,1,1.23-.92l3.82-2.22a11.25,11.25,0,0,1,1.8-.79c3.73-1.25,8-.87,10.66.66,4.16,2.4,2.72,5.8-1.54,8.27-4.87,2.83-10.59,3.34-14.66,1M614,374.54l-3.84-2.22-25.69,14.92c-1.88,1.1-4.12,2.3-5.66,3.09l3.35,1.94,3.7-1.94.13.08c-1.22,2.55.07,4.67,3.16,6.45,4.77,2.75,13.37,3.34,21-1.07,6.49-3.73,7.12-8.45,1.82-11.51a17.15,17.15,0,0,0-11.2-1.94l-.09,0L614,374.54" transform="translate(-497.86 -271.49)"/><path class="cls-5" d="M615.39,408.67c-3.8-2.19-3-5.79,1.67-8.49,4-2.35,10.23-3.65,14.83-1s1.84,6.35-1.76,8.44c-4.78,2.78-11,3.19-14.74,1.05m19.49-11.12c-5.93-3.42-14.77-3.7-21.89.43-6.71,3.9-6.47,8.93-.68,12.27a22.59,22.59,0,0,0,21.93-.41c6.5-3.77,6.78-8.75.64-12.29" transform="translate(-497.86 -271.49)"/><path class="cls-5" d="M665.46,415.76l-4.2-2.42-7.53.89c-1.85.26-3.65.49-5.63.82L648,415c.47-1.1.91-2.12,1.3-3.26l1.52-4.42-4.33-2.5L643.3,415l-18.44,1.92,4.28,2.47,7.88-1c2.07-.27,4-.5,5.94-.84l.09.05c-.52,1.18-1,2.28-1.39,3.47l-1.65,4.6,4.42,2.55,3.47-10.72,17.56-1.76" transform="translate(-497.86 -271.49)"/></g></g></g><g id="Left"><g class="cls-2"><g class="cls-6"><path d="M633.08,436.56,505.39,362.83c-3.9-2.25-7.11-.42-7.12,4.06l-.41,146.73a15.59,15.59,0,0,0,7.07,12.24l127.69,73.73c3.9,2.25,7.1.43,7.11-4.06l.42-146.73a15.64,15.64,0,0,0-7.07-12.24" transform="translate(-497.86 -271.49)"/></g></g><g class="cls-2"><g class="cls-7"><path class="cls-5" d="M581.72,415.09c-9.24-5.33-15.57-1.71-15.6,9a30,30,0,0,0,14.66,25.8c3.63,2.1,6.46,2.92,7.87,2.92l-.78-4a15.06,15.06,0,0,1-6.28-2.2,23.22,23.22,0,0,1-11.41-20.37c0-9,4.68-11.44,11.66-7.41a24.42,24.42,0,0,1,6,4.9l.94-3.07a27.76,27.76,0,0,0-7.07-5.61" transform="translate(-497.86 -271.49)"/><path class="cls-5" d="M615.48,435.14l-3.89-2.25-.06,20.26c0,7.57-2.86,9.28-7.28,6.73-4-2.29-6.93-7.25-6.91-14.92l.06-20.26-3.89-2.24,0,20.16c0,10.61,4.55,17.27,10.65,20.79,6.45,3.73,11.28,2.19,11.31-8.32l.06-19.95" transform="translate(-497.86 -271.49)"/><polyline class="cls-5" points="142.94 178.26 120.89 165.53 120.88 169.29 129.94 174.52 129.85 204.99 133.74 207.24 133.83 176.77 142.93 182.02 142.94 178.26"/></g></g></g><g id="Right"><g class="cls-2"><g class="cls-8"><path d="M780.61,362.83,652.92,436.56a15.64,15.64,0,0,0-7.07,12.24l.42,146.73c0,4.49,3.21,6.31,7.11,4.06l127.7-73.73a15.64,15.64,0,0,0,7.07-12.24l-.42-146.73c0-4.48-3.22-6.31-7.12-4.06" transform="translate(-497.86 -271.49)"/></g></g><g class="cls-2"><g class="cls-9"><polyline class="cls-5" points="169.67 166.16 147.62 178.88 147.63 182.64 156.69 177.41 156.78 207.88 160.67 205.63 160.58 175.17 169.68 169.91 169.67 166.16"/><polyline class="cls-5" points="189.07 154.96 172.98 164.24 173.08 198.47 189.83 188.8 189.82 185.09 176.91 192.54 176.88 180.21 188.46 173.52 188.45 169.86 176.87 176.55 176.84 165.74 189.08 158.67 189.07 154.96"/><path class="cls-5" d="M696.47,437l0-12.49a24.72,24.72,0,0,1,3.8-2.6c4.07-2.3,6.86-2,6.87,2.45,0,3.9-2.59,8-6.7,10.37L696.47,437M700,418.67a59.83,59.83,0,0,0-7.38,5l.1,33.76,3.84-2.22,0-14.83,3.62-2.09c3.49-1.86,5.09-1,6,3.21.84,3.78,1.52,6.34,2,7l4-2.3c-.62-1-1.33-3.86-2.32-8.06-.72-3.16-2.09-4.8-4.4-4.39v-.15c3.14-3,5.6-7.46,5.59-12,0-2.65-.85-4.5-2.36-5.15-1.86-.86-4.52-.19-8.62,2.18" transform="translate(-497.86 -271.49)"/></g></g></g></svg>